<?xml version="1.0" encoding="iso-8859-1"?>
<!-- Generator: Adobe Illustrator 19.0.0, SVG Export Plug-In . SVG Version: 6.00 Build 0)  -->
<svg version="1.1" id="Layer_1" xmlns="http://www.w3.org/2000/svg" xmlns:xlink="http://www.w3.org/1999/xlink" x="0px" y="0px"
	 viewBox="0 0 512 512" style="enable-background:new 0 0 512 512;" xml:space="preserve">
<g>
	<g>
		<g>
			<path d="M510.873,343.904L438.221,141.68c-2.732-7.605-9.944-12.677-18.025-12.677h-57.86v-64.42
				c0-10.577-8.575-19.152-19.152-19.152c-10.577,0-19.152,8.575-19.152,19.152v64.42H187.969v-64.42
				c0-10.577-8.575-19.152-19.152-19.152c-10.577,0-19.152,8.575-19.152,19.152v64.42h-57.86c-8.081,0-15.291,5.073-18.025,12.677
				L1.127,343.904C0.406,345.915,0,348.13,0,350.378v122.171c0,10.577,8.575,19.152,19.152,19.152h473.696
				c10.577,0,19.152-8.575,19.152-19.152V350.378C512,348.178,511.608,345.946,510.873,343.904z M105.275,167.307h44.39v39.674
				c0,10.577,8.575,19.152,19.152,19.152c10.577,0,19.152-8.575,19.152-19.152v-39.674H324.03v39.674
				c0,10.577,8.575,19.152,19.152,19.152c10.577,0,19.152-8.575,19.152-19.152v-39.674h44.39l58.892,163.919
				c-16.662,0-406.49,0-419.233,0L105.275,167.307z M303.085,369.53c-19.568,38.564-74.606,38.556-94.171,0H303.085z
				 M473.696,453.397H38.304V369.53h129.801c10.531,38.885,46.179,67.274,87.895,67.274s77.363-28.387,87.895-67.274h129.801
				V453.397z"/>
			<path d="M256,112.796c10.577,0,19.152-8.575,19.152-19.152V39.451c0-10.577-8.575-19.152-19.152-19.152
				c-10.577,0-19.152,8.575-19.152,19.152v54.192C236.848,104.221,245.423,112.796,256,112.796z"/>
		</g>
	</g>
</g>
<g>
</g>
<g>
</g>
<g>
</g>
<g>
</g>
<g>
</g>
<g>
</g>
<g>
</g>
<g>
</g>
<g>
</g>
<g>
</g>
<g>
</g>
<g>
</g>
<g>
</g>
<g>
</g>
<g>
</g>
</svg>
